<svg data-v-0dd9719b="" version="1.0" xmlns="http://www.w3.org/2000/svg" xmlns:xlink="http://www.w3.org/1999/xlink" width="100%" height="100%" viewBox="0 0 340.000000 250.000000" preserveAspectRatio="xMidYMid meet" color-interpolation-filters="sRGB" style="margin: auto;"> <rect data-v-0dd9719b="" x="0" y="0" width="100%" height="100%" fill="#fff" fill-opacity="1" class="background"></rect> <rect data-v-0dd9719b="" x="0" y="0" width="100%" height="100%" fill="url(#watermark)" fill-opacity="1" class="watermarklayer"></rect> <g data-v-0dd9719b="" fill="#333" class="icon-text-wrapper icon-svg-group iconsvg" transform="translate(47.84259796142578,92.12940979003906)"><g class="iconsvg-imagesvg" transform="translate(0,0)"><g><rect fill="#333" fill-opacity="0" stroke-width="2" x="0" y="0" width="60" height="65.74117698620532" class="image-rect"></rect> <svg x="0" y="0" width="60" height="65.74117698620532" filtersec="colorsb216908702" class="image-svg-svg primary" style="overflow: visible;"><svg xmlns="http://www.w3.org/2000/svg" viewBox="0.0018437110120430589 0 91.22099304199219 99.94999694824219"><path d="M71.1 48.23c0-1.43 0-2.84-.1-4.23 0-1.09-.13-2.16-.22-3.23-.18-2.27-.41-4.49-.75-6.64-.17-1.11-.38-2.19-.6-3.27a72.55 72.55 0 0 0-2.27-8.67c-.25-.75-.51-1.48-.78-2.2-.59-1.56-1.22-3-1.9-4.44-.35-.71-.69-1.42-1.06-2.1C58.85 5.1 52.61 0 45.61 0c-11 0-20.2 12.65-23.81 30.86 1.78-1.36 3.62-2.69 5.58-4C31 13.64 37.91 4.48 45.61 4.48c4.84 0 9.35 3.63 12.94 9.6.4.65.77 1.34 1.14 2a47 47 0 0 1 2 4.27c.28.69.53 1.41.78 2.13.5 1.4 1 2.85 1.39 4.36q.43 1.61.81 3.27c.46 2.06.85 4.2 1.15 6.41.15 1 .29 2.06.39 3.13a84.71 84.71 0 0 1 .43 8.53 77.59 77.59 0 0 1-4.17 25.7c-.25.72-.51 1.44-.78 2.13-.62 1.53-1.29 2.94-2 4.29-.36.69-.73 1.36-1.11 2-2.44 4.05-5.3 7-8.39 8.49a5.68 5.68 0 0 0-4.57-2.41 5.79 5.79 0 0 0 0 11.57 5.71 5.71 0 0 0 5.57-4.69C55.9 93.38 60.1 89.07 63.41 83c.37-.67.72-1.38 1.06-2.09q1-2.11 1.91-4.45c.27-.72.53-1.45.78-2.2a83.14 83.14 0 0 0 3.94-26.03z" fill="#1d3bd4"></path><path d="M36.26 74.69C23 78.14 11.58 76.77 7.72 70.1c-2.42-4.19-1.52-9.91 1.85-16 .37-.66.78-1.33 1.21-2a46.78 46.78 0 0 1 2.7-3.86c.46-.58 1-1.17 1.46-1.75 1-1.13 2-2.26 3.08-3.38.78-.78 1.59-1.56 2.43-2.33 1.55-1.43 3.2-2.84 5-4.21.83-.64 1.65-1.28 2.52-1.9C30.19 33 32.59 31.48 35.1 30a77.72 77.72 0 0 1 24.34-9.24 43 43 0 0 0-2-4.24 82.63 82.63 0 0 0-24.52 9.6c-1.24.72-2.43 1.46-3.61 2.21-.92.59-1.81 1.19-2.69 1.8-1.87 1.29-3.68 2.61-5.37 4-.88.71-1.71 1.43-2.53 2.15a71.93 71.93 0 0 0-6.38 6.31c-.53.59-1 1.18-1.52 1.77Q9.2 46.3 7.88 48.23c-.44.65-.88 1.31-1.28 2-5 8.13-6.25 16.09-2.75 22.15 3.37 5.84 10.48 8.73 19.51 8.73a60.61 60.61 0 0 0 19.11-3.53c-2.06-.9-4.13-1.84-6.21-2.89zM6.6 46.26c.91-1.3 1.89-2.6 3-3.9-2.26-4.1-3.38-8-3.15-11.43a5.76 5.76 0 0 0 2.23-10.71 5.87 5.87 0 0 0-2.89-.77 5.81 5.81 0 0 0-5 2.89 5.72 5.72 0 0 0-.59 4.39 5.64 5.64 0 0 0 1.86 2.78C1.37 34.57 3 40.36 6.6 46.26zM72.56 36.28c.29 2.23.52 4.49.65 6.82 9.64 9.8 14.14 20.34 10.3 27-2.42 4.19-7.83 6.28-14.8 6.41q-.87 2.35-1.88 4.51h1c9 0 16.14-2.89 19.51-8.73 5.56-9.51-.82-23.77-14.78-36.01z" fill="#1d3bd4"></path><path d="M45.61 71.56c-1-.4-1.93-.79-2.91-1.23a86.795 86.795 0 0 1-7.6-3.9A77.78 77.78 0 0 1 14.93 50a44 44 0 0 0-2.64 3.9 82.87 82.87 0 0 0 20.58 16.4c1.24.72 2.48 1.38 3.72 2 1 .51 1.94 1 2.9 1.43q3.09 1.47 6.12 2.66c1.06.4 2.1.77 3.15 1.13a71.29 71.29 0 0 0 8.64 2.38 42.75 42.75 0 0 0 2-4.23c-1.46-.27-2.95-.59-4.47-1-1.07-.28-2.15-.6-3.24-.93-1.97-.61-4.02-1.34-6.08-2.18zM90.45 22.34a5.81 5.81 0 0 0-5-2.89 5.63 5.63 0 0 0-1.9.37c-4-3.09-9.84-4.56-16.71-4.4.68 1.45 1.31 3 1.89 4.53 4.71.09 8.68 1.09 11.52 3a5.72 5.72 0 0 0 .2 5.17 5.81 5.81 0 0 0 5 2.89 5.79 5.79 0 0 0 5-8.68z" fill="#1d3bd4"></path><circle cx="45.61" cy="48.81" r="11.16" fill="#f39a2c"></circle></svg></svg> <!----></g></g> <g transform="translate(67,15.085590362548828)"><g data-gra="path-name" fill-rule="" class="tp-name iconsvg-namesvg"><g transform="scale(1)"><g><path d="M17.69-20L17.5-20 12.69 0 8.08 0 0.77-25.77 5.38-25.77 10.19-5.38 10.38-5.38 15.38-25.77 20.19-25.77 25.19-5.38 25.38-5.38 30.38-25.77 34.81-25.77 27.31 0 22.88 0 17.69-20ZM39.04-35.19L43.85-35.19 43.85-4.23 61.73-4.23 61.73 0 39.04 0 39.04-35.19ZM69.81-17.88L69.81-17.88 65.77-17.88Q65.96-26.54 76.35-26.54L76.35-26.54Q85.58-26.15 85.77-19.23L85.77-19.23 85.77-4.42Q85.77-2.88 87.31-2.88L87.31-2.88Q87.5-2.88 87.88-2.88L87.88-2.88Q88.46-3.08 88.85-3.08L88.85-3.08 88.85 0Q88.46 0 87.88 0L87.88 0Q86.92 0.19 86.35 0.19L86.35 0.19Q81.73 0.19 81.92-3.46L81.92-3.46Q78.08 0.38 72.5 0.38L72.5 0.38Q64.81 0 64.42-6.73L64.42-6.73Q64.62-13.65 72.31-14.81L72.31-14.81 79.42-15.58Q81.73-15.96 81.73-18.65L81.73-18.65Q81.73-22.88 75.58-22.88L75.58-22.88Q70.19-22.88 69.81-17.88ZM81.54-8.85L81.54-8.85 81.54-13.08Q80-12.12 74.42-11.35L74.42-11.35Q69.04-10.96 69.04-7.31L69.04-7.31Q69.04-2.88 73.46-2.88L73.46-2.88Q80.96-3.46 81.54-8.85ZM96.92-3.08L96.92 0 92.88 0 92.88-35.19 97.12-35.19 97.12-22.5 97.31-22.5Q99.62-26.35 104.62-26.54L104.62-26.54Q114.81-25.96 115.38-13.65L115.38-13.65Q114.81 0 104.04 0.38L104.04 0.38Q99.23 0.38 97.12-3.08L97.12-3.08 96.92-3.08ZM110.96-12.88L110.96-12.88Q111.15-22.5 103.85-22.5L103.85-22.5Q96.92-22.5 96.92-11.54L96.92-11.54Q97.12-3.46 104.04-2.88L104.04-2.88Q110.77-3.08 110.96-12.88ZM138.08-8.08L138.08-8.08 142.31-8.08Q141.54-3.65 137.69-0.96L137.69-0.96Q135.58 0.38 130.77 0.38L130.77 0.38Q119.81 0 119.23-12.12L119.23-12.12Q119.62-26.15 131.54-26.54L131.54-26.54Q142.5-26.35 142.69-11.35L142.69-11.35 123.85-11.35Q123.85-2.88 131.35-2.88L131.35-2.88Q136.73-3.27 138.08-8.08ZM123.85-14.81L123.85-14.81 138.27-14.81Q137.69-22.5 130.96-22.5L130.96-22.5Q124.62-21.92 123.85-14.81ZM147.88-35.19L152.31-35.19 152.31 0 147.88 0 147.88-35.19ZM177.31-18.27L177.31-18.27 173.08-18.27Q173.08-22.69 166.92-22.69L166.92-22.69Q162.12-22.5 161.92-19.04L161.92-19.04Q161.54-16.54 166.54-15.58L166.54-15.58 170.96-14.62Q178.27-12.88 178.08-7.69L178.08-7.69Q177.69 0 168.08 0.38L168.08 0.38Q157.12 0.38 156.92-8.27L156.92-8.27 160.96-8.27Q161.35-2.88 168.08-2.88L168.08-2.88Q173.65-3.08 173.85-7.12L173.85-7.12Q174.23-9.42 168.85-10.77L168.85-10.77 163.65-11.92Q157.69-13.46 157.69-18.08L157.69-18.08Q158.08-25.96 167.5-26.54L167.5-26.54Q176.73-26.35 177.31-18.27Z" transform="translate(-0.7699999809265137, 35.189998626708984)"></path></g> <!----> <!----> <!----> <!----> <!----> <!----> <!----></g></g> <!----></g></g><defs v-gra="od"></defs></svg>